HIERARCHY
ROOT Hips
{
  OFFSET 0 0 0
  CHANNELS 6 Xposition Yposition Zposition Zrotation Yrotation Xrotation
  JOINT LeftThigh
  {
    OFFSET 8.409438 0 -5.917753
    CHANNELS 3 Zrotation Yrotation Xrotation
    JOINT LeftLeg
    {
      OFFSET 0 0 -42.358652
      CHANNELS 3 Zrotation Yrotation Xrotation
      JOINT LeftFoot
      {
        OFFSET 0 0 -39.357303
        CHANNELS 3 Zrotation Yrotation Xrotation
      }
    }
  }
  JOINT RightThigh
  {
    OFFSET -8.409438 0 -5.917753
    CHANNELS 3 Zrotation Yrotation Xrotation
    JOINT RightLeg
    {
      OFFSET 0 0 -42.358652
      CHANNELS 3 Zrotation Yrotation Xrotation
      JOINT RightFoot
      {
        OFFSET 0 0 -39.357303
        CHANNELS 3 Zrotation Yrotation Xrotation
      }
    }
  }
  JOINT SpineLow
  {
    OFFSET 0 0 4.719101
    CHANNELS 3 Zrotation Yrotation Xrotation
    JOINT SpineMid
    {
      OFFSET 0 0 12.899191
      CHANNELS 3 Zrotation Yrotation Xrotation
      JOINT Chest
      {
        OFFSET 0 0 12.899191
        CHANNELS 3 Zrotation Yrotation Xrotation
        JOINT LeftShoulder
        {
          OFFSET 7.550562 1.41573 9.438202
          CHANNELS 3 Zrotation Yrotation Xrotation
          JOINT LeftArm
          {
            OFFSET 9.155056 0 4.247191
            CHANNELS 3 Zrotation Yrotation Xrotation
            JOINT LeftForearm
            {
              OFFSET 0 0 25.771955
              CHANNELS 3 Zrotation Yrotation Xrotation
              JOINT LeftHand
              {
                OFFSET 0 0 25.197169
                CHANNELS 3 Zrotation Yrotation Xrotation
              }
            }
          }
        }
        JOINT RightShoulder
        {
          OFFSET -7.550562 1.41573 9.438202
          CHANNELS 3 Zrotation Yrotation Xrotation
          JOINT RightArm
          {
            OFFSET -9.155056 0 4.247191
            CHANNELS 3 Zrotation Yrotation Xrotation
            JOINT RightForearm
            {
              OFFSET 0 0 -25.771955
              CHANNELS 3 Zrotation Yrotation Xrotation
              JOINT RightHand
              {
                OFFSET 0 0 -25.197169
                CHANNELS 3 Zrotation Yrotation Xrotation
              }
            }
          }
        }
        JOINT Neck
        {
          OFFSET 0 0 15.101124
          CHANNELS 3 Zrotation Yrotation Xrotation
          JOINT Head
          {
            OFFSET 0 0 11.325843
            CHANNELS 3 Zrotation Yrotation Xrotation
            End Site
            {
              OFFSET 0 0 14.157303
            }
          }
        }
      }
    }
  }
}
MOTION
Frames: 17
Frame Time: 0.0
0.0  89.887642  0.0  7.45818  -33.304245  -100.306217  17.51331  -8.185548  15.426172  -3.084243  -2.535943  9.228362  -1.256669  -2.791059  2.738719  -2.912695  12.817523  -18.001782  -1.264716  5.318708  22.232498  2.878101  1.489667  -0.026197  -3.889665  0.856506  0.008632  -10.635792  2.335602  -0.114068  -10.635793  2.335602  -0.114068  -17.928615  4.092436  5.921204  -12.886429  62.412818  59.342858  -23.904814  -13.535002  92.310207  95.388459  -16.097368  -4.471262  -18.578665  -4.51153  23.808475  57.125831  15.61749  44.555265  18.464603  -13.931233  -110.460121  84.327755  9.452272  -38.434039  22.257189  1.57637  6.426485  16.677512  1.41891  4.769628  
0.0  89.887642  0.0  7.47066  -33.042311  -100.148653  17.445024  -8.168704  15.323711  -3.061714  -2.534195  9.08772  -1.368313  -2.807951  2.653665  -3.092671  12.849357  -18.088321  -1.084653  5.312536  22.266252  2.731498  1.448827  -0.030757  -3.914135  0.854916  -2.29E-4  -10.702998  2.329758  -0.138832  -10.702998  2.329758  -0.138832  -17.739656  4.143048  5.912311  -13.189195  62.686147  59.040043  -23.803299  -13.785511  92.370809  95.382025  -15.896196  -4.248396  -18.4676  -4.51076  23.628583  56.857638  15.684179  44.291477  18.385491  -14.162697  -110.740233  84.356422  8.92736  -38.639248  22.433269  1.693349  6.386766  16.808275  1.507223  4.735104  
0.0  89.887642  0.0  7.479357  -32.791537  -100.142721  17.361198  -8.168136  15.371074  -3.115533  -2.601137  8.898736  -1.42656  -2.847505  2.659022  -3.417054  12.876229  -18.140697  -1.002443  5.296478  22.326597  2.738206  1.448731  -0.030065  -3.90668  0.875079  0.01562  -10.68224  2.387289  -0.098618  -10.68224  2.387289  -0.098618  -17.7244  4.152644  5.951643  -13.265397  62.865869  58.973467  -23.780776  -14.02563  92.245605  95.404874  -15.850585  -4.106983  -18.565498  -4.590894  23.587418  56.879672  15.689184  44.150741  18.235972  -14.140567  -110.662244  84.237624  8.849054  -38.611008  22.383385  1.716724  6.291786  16.770782  1.520756  4.662996  
0.0  89.887642  0.0  7.444666  -32.500768  -100.054368  17.176412  -8.166085  15.337348  -3.0123  -2.616492  8.792248  -1.553191  -2.859201  2.554548  -3.724876  12.857811  -18.180186  -0.918139  5.328883  22.339622  2.742411  1.453722  -0.012679  -3.931937  0.870433  0.022727  -10.751011  2.375705  -0.079401  -10.751012  2.375705  -0.079401  -17.559508  4.325151  6.120795  -13.546875  63.049296  58.588999  -23.73737  -14.289365  92.303758  95.379526  -15.697151  -4.002405  -18.40404  -4.577146  23.453416  56.706414  15.812371  43.90007  18.205423  -14.357643  -110.78919  84.26657  8.545868  -38.636214  22.541627  1.794447  6.235266  16.888682  1.578724  4.617292  
0.0  89.887642  0.0  7.425554  -32.191914  -100.063604  16.99993  -8.172987  15.404789  -3.057581  -2.690292  8.605148  -1.601191  -2.896486  2.562308  -4.054145  12.880278  -18.190448  -0.93161  5.346281  22.395784  2.778015  1.454379  -0.013523  -3.939313  0.885004  0.027358  -10.771144  2.416143  -0.069412  -10.771145  2.416144  -0.069412  -17.449384  4.454144  6.562661  -13.976876  63.135247  58.127329  -23.775771  -14.474352  92.196507  95.389553  -15.644061  -3.96372  -18.365143  -4.609256  23.539419  56.725017  15.895573  43.760135  18.079369  -14.326043  -110.693237  84.246912  8.459955  -38.528231  22.553153  1.775066  6.21138  16.897607  1.563399  4.600049  
0.0  89.887642  0.0  7.376417  -31.857628  -99.951099  16.772429  -8.170225  15.359291  -2.965305  -2.70623  8.482695  -1.728624  -2.928439  2.462306  -4.427464  12.797698  -18.194026  -0.882168  5.410446  22.323825  2.792562  1.456335  -0.00624  -3.974793  0.876519  0.027545  -10.868083  2.392961  -0.068806  -10.868083  2.392961  -0.068806  -17.101007  4.580371  6.889811  -14.345577  63.360542  57.756461  -23.801545  -14.62519  92.189469  95.413101  -15.580244  -3.932718  -18.100637  -4.610749  23.484176  56.556384  16.089697  43.492514  17.93534  -14.500735  -110.857408  84.327027  7.999821  -38.656152  22.745325  1.822428  6.179777  17.04126  1.599805  4.574088  
0.0  89.887642  0.0  7.355217  -31.571786  -99.996975  16.631663  -8.175022  15.475049  -3.007166  -2.808183  8.283732  -1.779871  -2.968662  2.468914  -4.695441  12.805301  -18.10944  -0.811318  5.391783  22.317859  2.794145  1.46416  -0.014  -3.982006  0.888874  0.045069  -10.887279  2.42949  -0.023329  -10.887279  2.42949  -0.023329  -16.924736  4.622033  7.25018  -14.613503  63.525841  57.525221  -23.887899  -14.711671  92.073217  95.45445  -15.502577  -3.870495  -17.960911  -4.661621  23.597079  56.639796  16.253213  43.307723  17.766892  -14.43014  -110.694026  84.340793  7.921833  -38.620635  22.804172  1.800539  6.147039  17.085728  1.582744  4.550187  
0.0  89.887642  0.0  7.317497  -31.331425  -99.90968  16.529541  -8.201532  15.445945  -2.877111  -2.81292  8.189902  -1.911479  -2.99888  2.35684  -4.897235  12.724977  -18.081496  -0.633417  5.401479  22.268649  2.704625  1.48208  -0.011648  -4.012667  0.873391  0.045331  -10.970984  2.387285  -0.021175  -10.970985  2.387285  -0.021175  -16.562514  4.780331  7.505431  -14.679624  63.828337  57.416271  -23.886466  -14.766347  91.981034  95.620094  -15.534305  -3.839342  -17.550241  -4.60737  23.64892  56.503259  16.514513  42.906765  17.823381  -14.541966  -110.616363  84.522683  7.649262  -38.621654  23.0544  1.857742  6.149465  17.272735  1.6284  4.549246  
0.0  89.887642  0.0  7.274647  -31.066081  -99.910518  16.469526  -8.241036  15.514382  -2.930684  -2.911103  7.993738  -1.977976  -3.050095  2.35804  -4.970818  12.751799  -17.981122  -0.716158  5.394472  22.233525  2.692399  1.487953  -0.008397  -4.018054  0.870373  0.057444  -10.985259  2.381059  0.01215  -10.985259  2.381059  0.01215  -16.422859  4.881351  7.7309  -14.536576  64.048871  57.601891  -23.985443  -14.908744  91.863177  95.691665  -15.473415  -3.76053  -17.389573  -4.640139  23.762821  56.763496  16.704108  42.77347  17.65359  -14.530728  -110.444437  84.606656  7.490961  -38.59938  23.135669  1.865641  6.151885  17.333591  1.635267  4.550568  
0.0  89.887642  0.0  7.214775  -30.826363  -99.784137  16.42115  -8.322867  15.45961  -2.860844  -2.913807  7.866136  -2.088691  -3.067863  2.265407  -4.963849  12.716723  -17.908172  -0.55166  5.370528  22.192266  2.49028  1.461654  -0.024643  -4.051284  0.839612  0.056898  -11.075912  2.297112  0.014614  -11.075912  2.297112  0.014614  -16.095183  5.087568  7.748257  -14.189751  64.37151  57.958065  -23.956737  -14.925971  91.767296  95.716908  -15.283556  -3.796361  -16.978899  -4.609055  23.710242  56.80415  16.868272  42.545816  17.564222  -14.530764  -110.308937  84.757859  7.181596  -38.686683  23.427799  1.966116  6.17831  17.55145  1.714802  4.565812  
0.0  89.887642  0.0  7.123635  -30.562744  -99.758856  16.398519  -8.440274  15.507123  -2.923661  -2.986754  7.67411  -2.163025  -3.12761  2.258586  -4.978152  12.723032  -17.767916  -0.694344  5.356053  22.127204  2.46613  1.46924  -0.034499  -4.041234  0.825142  0.083298  -11.047431  2.262103  0.089336  -11.047432  2.262103  0.089335  -16.111101  5.197221  7.744234  -13.820958  64.614489  58.351425  -24.023328  -15.06338  91.662419  95.804304  -15.259824  -3.668694  -16.883332  -4.721099  23.723411  57.087349  17.072087  42.47011  17.353848  -14.508203  -110.127642  84.87085  6.989683  -38.695106  23.46843  2.008322  6.156449  17.581478  1.746094  4.547639  
0.0  89.887642  0.0  7.050017  -30.460491  -99.678745  16.513661  -8.605303  15.483883  -2.867176  -2.973979  7.549826  -2.30364  -3.143496  2.133477  -4.52369  12.758917  -17.543864  -0.867846  5.352379  22.038263  2.253403  1.448359  -0.051919  -4.022202  0.79446  0.103181  -10.994557  2.181806  0.149279  -10.994557  2.181806  0.149279  -15.908911  5.390548  7.683062  -13.402692  64.894058  58.882967  -24.007147  -15.204788  91.553604  96.018768  -15.289701  -3.614093  -16.681563  -4.774315  23.570325  57.255173  17.179867  42.376714  17.255533  -14.480999  -109.980866  85.067807  6.73741  -38.697588  23.689592  2.102505  6.16247  17.746214  1.819392  4.547874  
0.0  89.887642  0.0  6.943354  -30.184207  -99.629819  16.470665  -8.743392  15.499671  -2.913986  -3.034903  7.368746  -2.3903  -3.193802  2.121785  -4.527197  12.743309  -17.436608  -1.092804  5.38165  21.984782  2.239389  1.452391  -0.057978  -4.004871  0.777823  0.124555  -10.946402  2.139991  0.210863  -10.946401  2.139991  0.210863  -15.877659  5.529336  7.678583  -13.035421  65.140881  59.391317  -24.051833  -15.44983  91.446956  96.06428  -15.246934  -3.483963  -16.604518  -4.863623  23.581509  57.470376  17.35509  42.277114  17.115689  -14.462939  -109.836107  85.181487  6.560551  -38.677168  23.724623  2.1338  6.157386  17.772129  1.843073  4.542723  
0.0  89.887642  0.0  6.851843  -30.033031  -99.499712  16.514773  -8.905109  15.414752  -2.838327  -3.008587  7.255697  -2.515772  -3.211277  2.025409  -4.102131  12.770316  -17.256164  -1.399944  5.414385  21.875428  2.093528  1.414187  -0.063128  -3.990274  0.749353  0.13421  -10.906084  2.063978  0.242342  -10.906084  2.063978  0.242342  -15.479972  5.748406  7.66784  -12.836128  65.379381  59.886283  -24.048434  -15.671039  91.462946  96.153749  -15.48455  -3.575672  -16.356234  -4.906422  23.455527  57.596153  17.434206  42.196348  17.121393  -14.445106  -109.713111  85.349486  6.459624  -38.634913  23.940205  2.190902  6.167001  17.933102  1.888602  4.547065  
0.0  89.887642  0.0  6.7423  -29.744723  -99.4278  16.488226  -9.041079  15.424953  -2.913824  -3.067721  7.047919  -2.58124  -3.264037  2.012311  -4.237742  12.733285  -17.194341  -1.527808  5.429296  21.810944  2.08052  1.413524  -0.074231  -3.963491  0.740447  0.156371  -10.832147  2.043271  0.305046  -10.832147  2.043271  0.305046  -15.374187  5.814183  7.673964  -12.579658  65.673418  60.385407  -24.062701  -15.899325  91.331558  96.223779  -15.456941  -3.588033  -16.318543  -5.020591  23.467506  57.734409  17.56574  42.046385  16.977298  -14.445015  -109.598561  85.412177  6.351933  -38.680183  24.00211  2.201949  6.131216  17.979499  1.896136  4.519558  
0.0  89.887642  0.0  6.643213  -29.504819  -99.307283  16.423591  -9.19818  15.358454  -2.81859  -3.033233  6.922455  -2.706179  -3.279026  1.908275  -4.170887  12.753089  -17.097955  -1.420846  5.386617  21.789084  1.854126  1.352348  -0.091789  -3.941089  0.72499  0.172579  -10.770375  2.003711  0.352439  -10.770375  2.003711  0.352438  -15.038448  5.924774  7.6769  -12.365273  66.008635  60.919295  -24.054197  -16.117948  91.430918  96.357835  -15.731325  -3.847893  -16.236869  -5.116554  23.382021  57.857267  17.646855  41.944816  16.954684  -14.442387  -109.487836  85.482501  6.334667  -38.768401  24.211498  2.222085  6.100578  18.13639  1.912218  4.495116  
0.0  89.887642  0.0  6.548997  -29.173023  -99.284957  16.336695  -9.308563  15.431569  -2.862909  -3.100064  6.698448  -2.770772  -3.331786  1.893535  -4.467794  12.753059  -17.031533  -1.559664  5.397527  21.738082  1.857344  1.350959  -0.113127  -3.913632  0.72334  0.204558  -10.694333  2.004265  0.440717  -10.694334  2.004264  0.440716  -14.895652  5.974191  7.689902  -12.118588  66.332922  61.399622  -24.09353  -16.230334  91.31767  96.423957  -15.62632  -3.901474  -16.235455  -5.230788  23.36887  57.990309  17.726501  41.805726  16.840161  -14.482482  -109.390883  85.506074  6.278844  -38.882744  24.3709  2.23908  6.032087  18.255937  1.923891  4.442497  
